<svg width="24" height="24" viewBox="0 0 24 24" fill="none" xmlns="http://www.w3.org/2000/svg">
    <path d="M12 16.5a4.5 4.5 0 1 0 0-9 4.5 4.5 0 0 0 0 9z" stroke="#395DAB" stroke-width="2" stroke-linecap="round" stroke-linejoin="round"/>
    <path d="M17.218 6.102c.24.212.467.44.68.68l2.561.365a9.69 9.69 0 0 1 .953 2.303l-1.552 2.07s.02.64 0 .96l1.553 2.07a9.687 9.687 0 0 1-.954 2.302l-2.561.366s-.44.467-.68.68l-.366 2.561a9.69 9.69 0 0 1-2.302.953l-2.07-1.552c-.32.02-.64.02-.96 0l-2.07 1.553a9.688 9.688 0 0 1-2.302-.954l-.366-2.56a7.927 7.927 0 0 1-.68-.68l-2.562-.367a9.691 9.691 0 0 1-.952-2.302l1.552-2.07s-.02-.64 0-.96L2.587 9.45a9.691 9.691 0 0 1 .954-2.302l2.56-.366c.213-.24.44-.467.68-.68l.366-2.562a9.69 9.69 0 0 1 2.303-.952l2.07 1.552c.32-.02.64-.02.96 0l2.07-1.553a9.69 9.69 0 0 1 2.302.954l.366 2.56z" stroke="#395DAB" stroke-width="2" stroke-linecap="round" stroke-linejoin="round"/>
</svg>
